<svg width="328" height="66" viewBox="0 0 328 66" fill="none" xmlns="http://www.w3.org/2000/svg">
<path d="M52.973 61.5322C49.7534 58.2788 47.9495 53.9035 47.9487 49.3461C47.7467 46.9391 48.0934 44.5178 48.9631 42.2615C49.8328 40.0053 51.2032 37.9717 52.973 36.3113L39.1764 0.00930164H27.8678C26.6266 -0.0602695 25.3952 0.2618 24.3503 0.929277C23.3053 1.59675 22.5007 2.5753 22.0519 3.72438L0 65.8558H14.2004L18.6431 52.2285H44.6207L49.225 65.8558H61.0506C58.015 65.1603 55.2246 63.6668 52.973 61.5322ZM22.278 41.1313L31.4542 13.0281L40.9373 41.1313H22.278Z" fill="black"/>
<path d="M126.592 2.41404e-05H78.2722C76.6249 -0.00451874 75.0416 0.632281 73.8632 1.77335C72.6848 2.91443 72.0056 4.46852 71.9717 6.10107V11.4175H91.7457V65.8625H105.542V11.4175H120.082C120.935 11.4349 121.784 11.2812 122.576 10.9654C123.368 10.6497 124.087 10.1786 124.691 9.58026C125.294 8.98196 125.769 8.26888 126.088 7.48387C126.406 6.69886 126.562 5.85811 126.544 5.01217L126.592 2.41404e-05Z" fill="black"/>
<path d="M86.1886 34.39C86.3464 37.7868 85.4254 41.1472 83.5553 43.9979C81.0836 41.1956 75.3969 34.1178 75.3969 34.1178C81.3582 30.1945 84.6862 25.5827 84.6862 20.3304C84.7372 17.8224 84.0282 15.3568 82.6506 13.2525H70.2919V7.71191C62.0366 7.9361 57.3677 12.8361 56.1399 18.0244C55.7884 19.7983 55.8048 21.6245 56.1881 23.3919C56.5714 25.1593 57.3135 26.8309 58.3693 28.305C59.3251 29.8013 60.4059 31.2154 61.6004 32.5325C55.8653 35.9113 49.6455 38.9378 49.6455 49.4425C49.6455 57.8174 55.3806 65.0714 67.5455 65.0714C70.4036 65.2051 73.2594 64.7617 75.9393 63.7679C78.6192 62.7742 81.0675 61.2509 83.1353 59.2906C84.1531 60.5396 87.0448 64.0946 88.5311 66.0002H90.1467V34.39H86.1886ZM65.8977 18.729C66.1026 18.1025 66.4837 17.5469 66.9962 17.1277C67.612 16.6039 68.3362 16.2206 69.1179 16.0048C69.8995 15.7889 70.7194 15.7459 71.5197 15.8787C72.2093 15.9237 72.8738 16.1529 73.4427 16.5419C74.0115 16.931 74.4635 17.4654 74.7507 18.0885C75.1053 18.9615 75.2438 19.9059 75.1546 20.8428C75.0274 21.8458 74.7005 22.8138 74.193 23.6907C73.6855 24.5675 73.0075 25.3358 72.1982 25.951C71.9559 26.1432 70.5827 27.0559 70.098 27.3602C69.9849 27.2481 69.7588 27.0559 69.6457 26.9278C68.0575 25.3431 66.8341 23.4367 66.0592 21.3392C65.8288 20.4896 65.8288 19.5947 66.0592 18.745M65.0091 54.9991C63.5511 54.3459 62.3391 53.252 61.5468 51.8741C60.7545 50.4962 60.4226 48.905 60.5987 47.3287C61.0026 43.8218 63.4259 41.5639 67.1739 39.3221L77.4002 52.1327C75.3808 54.2785 69.9042 57.321 65.0091 55.0631" fill="black"/>
<path d="M142.045 0H141.451V65.8465H142.045V0Z" fill="black"/>
<path d="M166.909 4.74571C168.067 4.73168 169.214 4.96501 170.274 5.43002C171.334 5.89502 172.281 6.58093 173.053 7.44161L172.123 8.47444C171.471 7.72594 170.66 7.13173 169.749 6.73503C168.838 6.33833 167.85 6.14914 166.856 6.18119C161.678 6.18119 158.501 10.12 158.501 16.3696C158.501 22.6191 161.608 26.733 166.751 26.733C168.592 26.8075 170.393 26.1818 171.789 24.9824V17.9801H166.4V16.6496H173.299V25.5776C172.419 26.421 171.379 27.0789 170.238 27.512C169.098 27.9452 167.882 28.1446 166.663 28.0984C160.871 28.0984 156.956 23.5469 156.956 16.3696C156.956 9.19219 161.011 4.74571 166.962 4.74571" fill="black"/>
<path d="M192.993 27.6785L186.885 17.3325H182.075V27.6785H180.513V5.16602H186.955C191.449 5.16602 194.398 6.79405 194.398 11.1005C194.398 14.6892 192.133 16.7549 188.587 17.2275L194.801 27.731L192.993 27.6785ZM186.534 16.0196C190.553 16.0196 192.748 14.4266 192.748 11.1005C192.748 7.77438 190.553 6.49646 186.534 6.49646H182.075V16.0196H186.534Z" fill="black"/>
<path d="M199.752 16.3349C199.752 9.22757 203.631 4.74609 209.091 4.74609C214.55 4.74609 218.377 9.22757 218.377 16.3349C218.377 23.4423 214.497 28.0988 209.091 28.0988C203.684 28.0988 199.752 23.4773 199.752 16.3349ZM216.726 16.3349C216.726 10.1204 213.637 6.18157 209.091 6.18157C204.544 6.18157 201.402 10.1204 201.402 16.3349C201.402 22.5495 204.491 26.6633 209.091 26.6633C213.69 26.6633 216.726 22.5845 216.726 16.3349Z" fill="black"/>
<path d="M224.959 5.14844H226.522V18.873C226.522 24.8425 229.383 26.6631 232.56 26.6631C235.737 26.6631 238.704 24.9125 238.704 18.873V5.14844H240.214V19.0305C240.214 26.0329 236.44 28.0985 232.56 28.0985C228.681 28.0985 224.959 26.0854 224.959 19.0305V5.14844Z" fill="black"/>
<path d="M248.271 5.14844H254.432C259.47 5.14844 262.454 6.79398 262.454 11.4505C262.454 16.1071 259.435 17.9802 254.432 17.9802H249.833V27.6609H248.271V5.14844ZM254.028 16.6848C258.662 16.6848 260.839 15.1443 260.839 11.433C260.839 7.7218 258.627 6.46137 254.028 6.46137H249.833V16.6673L254.028 16.6848Z" fill="black"/>
<path d="M161.958 39.5127H157.974V61.8676H161.958V39.5127Z" fill="black"/>
<path d="M169.244 39.5127H173.334L180.355 52.0994L182.69 56.8434H182.83C182.62 54.5502 182.304 51.7142 182.304 49.2284V39.5127H185.972V61.8676H181.935L174.913 49.2984L172.579 44.5368H172.456C172.649 46.9001 172.965 49.596 172.965 52.0994V61.8676H169.191L169.244 39.5127Z" fill="black"/>
<path d="M197.874 42.8738H191.379V39.5127H208.283V42.8738H201.841V61.8851H197.874V42.8738Z" fill="black"/>
<path d="M213.672 39.5127H227.153V42.8738H217.639V48.5807H225.714V51.9243H217.639V58.524H227.487V61.8851H213.672V39.5127Z" fill="black"/>
<path d="M245.901 61.8676L241.074 53.1147H237.668V61.8676H233.701V39.5127H241.249C245.901 39.5127 249.5 41.1582 249.5 46.1474C249.592 47.5635 249.197 48.9687 248.38 50.1306C247.563 51.2924 246.372 52.1414 245.006 52.537L250.36 61.8676H245.901ZM237.668 49.9812H240.828C243.917 49.9812 245.568 48.6682 245.568 46.1474C245.568 43.6266 243.917 42.6462 240.828 42.6462H237.668V49.9812Z" fill="black"/>
<path d="M259.821 39.5127H255.836V61.8676H259.821V39.5127Z" fill="black"/>
<path d="M265.912 50.5932C265.912 43.3808 269.967 39.1094 275.83 39.1094C281.693 39.1094 285.695 43.3808 285.695 50.5932C285.695 57.8056 281.658 62.287 275.83 62.287C270.002 62.287 265.912 57.8406 265.912 50.5932ZM281.711 50.5932C281.711 45.604 279.411 42.558 275.918 42.558C272.425 42.558 270.09 45.604 270.09 50.5932C270.09 55.5823 272.389 58.8384 275.918 58.8384C279.446 58.8384 281.711 55.6173 281.711 50.5932Z" fill="black"/>
<path d="M304.039 61.8676L299.212 53.1147H295.807V61.8676H291.839V39.5127H299.37C304.039 39.5127 307.638 41.1582 307.638 46.1474C307.73 47.5635 307.335 48.9687 306.518 50.1306C305.701 51.2924 304.511 52.1414 303.144 52.537L308.498 61.8676H304.039ZM295.807 49.9812H298.966C302.056 49.9812 303.706 48.6682 303.706 46.1474C303.706 43.6266 302.056 42.6462 298.966 42.6462H295.807V49.9812Z" fill="black"/>
<path d="M314.256 56.3001C315.83 57.8368 317.918 58.7406 320.118 58.8384C322.629 58.8384 324.033 57.7005 324.033 55.9499C324.033 54.1994 322.594 53.5341 320.522 52.6764L317.468 51.3459C316.185 50.9486 315.059 50.1612 314.247 49.094C313.435 48.0268 312.977 46.7331 312.939 45.394C312.939 41.8928 316.099 39.1094 320.452 39.1094C323.041 39.1129 325.525 40.1315 327.368 41.9453L325.314 44.4661C324.002 43.2294 322.275 42.5242 320.47 42.488C318.346 42.488 316.959 43.4858 316.959 45.1139C316.959 46.7419 318.714 47.5122 320.47 48.2649L323.471 49.5253C326.157 50.6632 328 52.3262 328 55.5823C328 59.206 324.981 62.217 319.943 62.217C316.928 62.2195 314.033 61.0371 311.886 58.9259L314.256 56.3001Z" fill="black"/>
</svg>
