<svg width="17" height="16" viewBox="0 0 17 16" fill="none" xmlns="http://www.w3.org/2000/svg">
<path d="M8.50018 15.4073C7.48783 15.4073 6.53104 15.2128 5.62981 14.8236C4.72858 14.4345 3.94166 13.9036 3.26907 13.231C2.59598 12.5585 2.06512 11.7715 1.67648 10.8703C1.28784 9.96907 1.09327 9.01228 1.09277 7.99994C1.09277 6.97524 1.28734 6.01549 1.67648 5.12068C2.06561 4.22586 2.59648 3.44191 3.26907 2.76883C3.94166 2.09574 4.72833 1.56488 5.62907 1.17623C6.52981 0.787591 7.48685 0.593023 8.50018 0.592529C9.52487 0.592529 10.4849 0.787097 11.3802 1.17623C12.2755 1.56537 13.0592 2.09623 13.7313 2.76883C14.4044 3.44142 14.9352 4.22537 15.3239 5.12068C15.7125 6.01599 15.9071 6.97574 15.9076 7.99994C15.9076 9.01228 15.713 9.96907 15.3239 10.8703C14.9347 11.7715 14.4039 12.5587 13.7313 13.2318C13.0587 13.9044 12.2747 14.4352 11.3794 14.8244C10.4841 15.2135 9.52438 15.4078 8.50018 15.4073ZM8.50018 13.8888C8.82117 13.4444 9.09895 12.9814 9.33351 12.4999C9.56808 12.0185 9.75944 11.5061 9.90759 10.9629H7.09277C7.24092 11.5061 7.43228 12.0185 7.66685 12.4999C7.90142 12.9814 8.17919 13.4444 8.50018 13.8888ZM6.57425 13.5925C6.35203 13.1851 6.15771 12.7622 5.99129 12.3236C5.82487 11.8851 5.68586 11.4315 5.57425 10.9629H3.38907C3.74709 11.5802 4.19475 12.1172 4.73203 12.574C5.26932 13.0308 5.88339 13.3703 6.57425 13.5925ZM10.4261 13.5925C11.1175 13.3703 11.7318 13.0308 12.2691 12.574C12.8064 12.1172 13.2538 11.5802 13.6113 10.9629H11.4261C11.315 11.432 11.1762 11.8859 11.0098 12.3244C10.8434 12.7629 10.6488 13.1856 10.4261 13.5925ZM2.75944 9.48142H5.27796C5.24092 9.2345 5.21327 8.9908 5.195 8.75031C5.17672 8.50981 5.16734 8.25969 5.16685 7.99994C5.16685 7.74068 5.17623 7.4908 5.195 7.25031C5.21376 7.00981 5.24142 6.76586 5.27796 6.51846H2.75944C2.69771 6.76537 2.65154 7.00932 2.62092 7.25031C2.5903 7.49129 2.57475 7.74117 2.57425 7.99994C2.57425 8.2592 2.58981 8.50932 2.62092 8.75031C2.65203 8.99129 2.69821 9.235 2.75944 9.48142ZM6.75944 9.48142H10.2409C10.278 9.2345 10.3059 8.9908 10.3246 8.75031C10.3434 8.50981 10.3525 8.25969 10.352 7.99994C10.352 7.74068 10.3426 7.4908 10.3239 7.25031C10.3051 7.00981 10.2775 6.76586 10.2409 6.51846H6.75944C6.7224 6.76537 6.69475 7.00932 6.67648 7.25031C6.65821 7.49129 6.64882 7.74117 6.64833 7.99994C6.64833 8.2592 6.65771 8.50932 6.67648 8.75031C6.69524 8.99129 6.7229 9.235 6.75944 9.48142ZM11.7224 9.48142H14.2409C14.3026 9.2345 14.3491 8.9908 14.3802 8.75031C14.4113 8.50981 14.4266 8.25969 14.4261 7.99994C14.4261 7.74068 14.4108 7.4908 14.3802 7.25031C14.3496 7.00981 14.3031 6.76586 14.2409 6.51846H11.7224C11.7594 6.76537 11.7873 7.00932 11.8061 7.25031C11.8249 7.49129 11.834 7.74117 11.8335 7.99994C11.8335 8.2592 11.8241 8.50932 11.8054 8.75031C11.7866 8.99129 11.7589 9.235 11.7224 9.48142ZM11.4261 5.03697H13.6113C13.2533 4.41969 12.8059 3.88265 12.2691 3.42586C11.7323 2.96907 11.118 2.62957 10.4261 2.40734C10.6483 2.81475 10.8429 3.23771 11.0098 3.67623C11.1767 4.11475 11.3155 4.56833 11.4261 5.03697ZM7.09277 5.03697H9.90759C9.75944 4.49376 9.56808 3.98142 9.33351 3.49994C9.09895 3.01846 8.82117 2.55549 8.50018 2.11105C8.17919 2.55549 7.90142 3.01846 7.66685 3.49994C7.43228 3.98142 7.24092 4.49376 7.09277 5.03697ZM3.38907 5.03697H5.57425C5.68537 4.56784 5.82438 4.11401 5.99129 3.67549C6.15821 3.23697 6.35253 2.81426 6.57425 2.40734C5.8829 2.62957 5.26858 2.96907 4.73129 3.42586C4.19401 3.88265 3.7466 4.41969 3.38907 5.03697Z" fill="white"/>
</svg>
