<svg width="20" height="16" viewBox="0 0 20 16" fill="none" xmlns="http://www.w3.org/2000/svg">
<path d="M0.319575 8.65541C0.26138 8.6066 0.232382 8.55796 0.203385 8.53347C0.174389 8.50915 0.11619 8.43602 0.0871948 8.36272C0.0289978 8.24078 3.44496e-07 8.11884 3.49819e-07 7.99707C3.55149e-07 7.87513 0.0289959 7.75319 0.0871948 7.63142C0.11619 7.5583 0.174389 7.48516 0.203385 7.46067C0.232382 7.43635 0.261582 7.38754 0.319575 7.33873L8.74983 0.268198C8.95341 0.0974479 9.24398 -4.7016e-07 9.53476 -4.5745e-07C9.82554 -4.4474e-07 10.1161 0.0974479 10.3197 0.268199C10.7267 0.609526 10.7267 1.24336 10.3197 1.58469L3.80806 7.07045L18.8953 7.07045C19.5059 7.07045 20 7.48491 20 7.99698C20 8.50905 19.5058 8.92351 18.8953 8.92351L3.80806 8.92351L10.3488 14.4093C10.7847 14.7749 10.7847 15.3601 10.3488 15.7258C9.9128 16.0914 9.21504 16.0914 8.7791 15.7258L0.319575 8.65541Z" fill="white"/>
</svg>
