<svg width="12" height="14" viewBox="0 0 12 14" fill="none" xmlns="http://www.w3.org/2000/svg">
<g clip-path="url(#clip0_1216_908)">
<path d="M5.70964 0.329834C7.14622 0.329834 8.52397 0.900517 9.5398 1.91634C10.5556 2.93216 11.1263 4.30991 11.1263 5.7465C11.1263 8.03539 9.51797 10.5298 6.34297 13.2565C6.16643 13.4082 5.94133 13.4915 5.7086 13.4913C5.47586 13.491 5.25091 13.4074 5.07464 13.2554L4.86463 13.0732C1.83019 10.4176 0.292969 7.98428 0.292969 5.7465C0.292969 4.30991 0.863652 2.93216 1.87947 1.91634C2.8953 0.900517 4.27305 0.329834 5.70964 0.329834ZM5.70964 3.66317C5.1571 3.66317 4.6272 3.88266 4.2365 4.27336C3.8458 4.66406 3.6263 5.19397 3.6263 5.7465C3.6263 6.29904 3.8458 6.82894 4.2365 7.21964C4.6272 7.61034 5.1571 7.82983 5.70964 7.82983C6.26217 7.82983 6.79207 7.61034 7.18277 7.21964C7.57348 6.82894 7.79297 6.29904 7.79297 5.7465C7.79297 5.19397 7.57348 4.66406 7.18277 4.27336C6.79207 3.88266 6.26217 3.66317 5.70964 3.66317Z" fill="white"/>
</g>
<defs>
<clipPath id="clip0_1216_908">
<rect width="12" height="14" fill="white"/>
</clipPath>
</defs>
</svg>
