<svg width="20" height="16" viewBox="0 0 20 16" fill="none" xmlns="http://www.w3.org/2000/svg">
<path d="M19.6804 8.65541C19.7386 8.6066 19.7676 8.55796 19.7966 8.53347C19.8256 8.50915 19.8838 8.43602 19.9128 8.36272C19.971 8.24078 20 8.11884 20 7.99707C20 7.87513 19.971 7.75319 19.9128 7.63142C19.8838 7.5583 19.8256 7.48516 19.7966 7.46067C19.7676 7.43635 19.7384 7.38754 19.6804 7.33873L11.2502 0.268198C11.0466 0.0974479 10.756 -4.7016e-07 10.4652 -4.5745e-07C10.1745 -4.4474e-07 9.8839 0.0974479 9.6803 0.268199C9.27333 0.609526 9.27333 1.24336 9.6803 1.58469L16.1919 7.07045L1.1047 7.07045C0.494135 7.07045 -3.72206e-07 7.48491 -3.49823e-07 7.99698C-3.2744e-07 8.50905 0.494161 8.92351 1.1047 8.92351L16.1919 8.92351L9.65123 14.4093C9.21527 14.7749 9.21527 15.3601 9.65123 15.7258C10.0872 16.0914 10.785 16.0914 11.2209 15.7258L19.6804 8.65541Z" fill="black"/>
</svg>
