<svg width="11" height="7" viewBox="0 0 11 7" fill="none" xmlns="http://www.w3.org/2000/svg">
<path d="M0.00331011 0.433145C0.0222027 0.388692 0.0388748 0.34202 0.0611013 0.298679C0.101019 0.207961 0.167032 0.131194 0.250754 0.0781496C0.334477 0.0251055 0.432115 -0.00183163 0.531191 0.000823334H10.3776C10.449 -0.00200902 10.5204 0.00247251 10.5909 0.0141723C10.6757 0.033617 10.7544 0.0737872 10.8199 0.131057C10.8854 0.188327 10.9357 0.260908 10.9663 0.342361C10.9969 0.423815 11.0069 0.511601 10.9953 0.597836C10.9837 0.684072 10.9509 0.766067 10.8999 0.836544C10.8665 0.879436 10.8293 0.919269 10.7887 0.955491C9.16989 2.57581 7.55034 4.19575 5.93003 5.81532C5.64664 6.09871 5.35322 6.09871 5.06984 5.81532C3.4673 4.21279 1.86514 2.61097 0.263343 1.00992C0.144236 0.906714 0.0535992 0.774747 0 0.626542L0.00331011 0.433145Z" fill="white"/>
</svg>