<svg width="16" height="20" viewBox="0 0 16 20" fill="none" xmlns="http://www.w3.org/2000/svg">
<path d="M8 1.80067C6.34976 1.80067 4.76712 2.46466 3.60022 3.64658C2.43333 4.82849 1.77778 6.43152 1.77778 8.103C1.77778 10.6798 3.36178 13.1656 5.10044 15.0914C5.98994 16.0719 6.95993 16.9743 8 17.7888C9.04005 16.9749 10.01 16.0732 10.8996 15.0932C12.6382 13.1656 14.2222 10.6807 14.2222 8.103C14.2222 6.43152 13.5667 4.82849 12.3998 3.64658C11.2329 2.46466 9.65024 1.80067 8 1.80067ZM8 20L7.496 19.6489L7.49333 19.6471L7.488 19.6426L7.47022 19.63L7.40356 19.5822C7.0355 19.3112 6.67563 19.029 6.32444 18.7359C5.42433 17.987 4.57694 17.1753 3.78844 16.3068C1.97156 14.2937 0 11.3775 0 8.103C3.16163e-08 5.95395 0.842855 3.89292 2.34315 2.37331C3.84344 0.853706 5.87827 0 8 0C10.1217 0 12.1566 0.853706 13.6569 2.37331C15.1571 3.89292 16 5.95395 16 8.103C16 11.3775 14.0284 14.2946 12.2116 16.3068C11.1821 17.441 10.0527 18.4776 8.83733 19.404C8.73606 19.4806 8.63383 19.556 8.53067 19.63L8.512 19.6426L8.50667 19.6471L8.50489 19.648L8 20ZM8 6.30233C7.5285 6.30233 7.07632 6.49204 6.74292 6.82973C6.40952 7.16743 6.22222 7.62543 6.22222 8.103C6.22222 8.58056 6.40952 9.03857 6.74292 9.37626C7.07632 9.71395 7.5285 9.90366 8 9.90366C8.4715 9.90366 8.92368 9.71395 9.25708 9.37626C9.59048 9.03857 9.77778 8.58056 9.77778 8.103C9.77778 7.62543 9.59048 7.16743 9.25708 6.82973C8.92368 6.49204 8.4715 6.30233 8 6.30233ZM4.44444 8.103C4.44444 7.14787 4.81905 6.23185 5.48584 5.55647C6.15264 4.88109 7.05701 4.50167 8 4.50167C8.94299 4.50167 9.84736 4.88109 10.5142 5.55647C11.181 6.23185 11.5556 7.14787 11.5556 8.103C11.5556 9.05813 11.181 9.97414 10.5142 10.6495C9.84736 11.3249 8.94299 11.7043 8 11.7043C7.05701 11.7043 6.15264 11.3249 5.48584 10.6495C4.81905 9.97414 4.44444 9.05813 4.44444 8.103Z" fill="black"/>
</svg>
