<svg width="267" height="54" viewBox="0 0 267 54" fill="none" xmlns="http://www.w3.org/2000/svg">
<path d="M43.1213 50.3445C40.5005 47.6826 39.032 44.1029 39.0314 40.3741C38.867 38.4047 39.1492 36.4237 39.8572 34.5776C40.5651 32.7316 41.6807 31.0678 43.1213 29.7093L31.8906 0.00761043H22.685C21.6747 -0.0493114 20.6723 0.2142 19.8217 0.760318C18.9711 1.30644 18.3161 2.10706 17.9508 3.04722L0 53.882H11.5595L15.176 42.7324H36.3224L40.0703 53.882H49.6967C47.2256 53.313 44.9542 52.091 43.1213 50.3445ZM18.1349 33.6529L25.6045 10.6593L33.324 33.6529H18.1349Z" fill="black"/>
<path d="M103.05 1.97512e-05H63.7157C62.3747 -0.00369715 61.0859 0.517321 60.1267 1.45093C59.1674 2.38453 58.6145 3.65606 58.5869 4.99179V9.34157H74.6835V53.8875H85.9142V9.34157H97.7499C98.4446 9.35584 99.135 9.23005 99.7797 8.97173C100.424 8.71341 101.01 8.32791 101.501 7.83839C101.993 7.34887 102.38 6.76545 102.639 6.12316C102.898 5.48088 103.024 4.793 103.01 4.10087L103.05 1.97512e-05Z" fill="black"/>
<path d="M70.1593 28.1371C70.2878 30.9164 69.5381 33.6657 68.0158 35.9982C66.0037 33.7054 61.3746 27.9144 61.3746 27.9144C66.2273 24.7045 68.9363 20.9312 68.9363 16.6338C68.9779 14.5818 68.4007 12.5645 67.2793 10.8428H57.219V6.30962C50.499 6.49304 46.6984 10.5022 45.6989 14.7471C45.4128 16.1985 45.4262 17.6927 45.7382 19.1387C46.0502 20.5848 46.6543 21.9524 47.5137 23.1585C48.2918 24.3827 49.1716 25.5397 50.1439 26.6173C45.4754 29.3818 40.4124 31.858 40.4124 40.4528C40.4124 47.305 45.0809 53.2401 54.9834 53.2401C57.31 53.3495 59.6346 52.9867 61.8161 52.1736C63.9977 51.3606 65.9906 50.1143 67.6738 48.5104C68.5023 49.5323 70.8563 52.4409 72.0662 54H73.3813V28.1371H70.1593ZM53.642 15.3236C53.8088 14.811 54.119 14.3564 54.5363 14.0134C55.0375 13.5849 55.6271 13.2713 56.2633 13.0947C56.8996 12.9181 57.567 12.8829 58.2185 12.9915C58.7798 13.0283 59.3207 13.2158 59.7838 13.5342C60.2469 13.8525 60.6148 14.2897 60.8486 14.7995C61.1372 15.5138 61.25 16.2865 61.1774 17.0531C61.0738 17.8737 60.8077 18.6657 60.3946 19.3831C59.9815 20.1006 59.4296 20.7292 58.7708 21.2325C58.5735 21.3897 57.4557 22.1365 57.0612 22.3855C56.9691 22.2938 56.785 22.1365 56.693 22.0317C55.4002 20.7352 54.4042 19.1753 53.7735 17.4592C53.5859 16.7641 53.5859 16.0319 53.7735 15.3367M52.9187 44.9991C51.7318 44.4647 50.7452 43.5697 50.1003 42.4423C49.4553 41.3149 49.1852 40.0131 49.3286 38.7234C49.6573 35.8541 51.6299 34.0067 54.6809 32.1725L63.0053 42.6539C61.3615 44.4095 56.9034 46.8988 52.9187 45.0515" fill="black"/>
<path d="M115.628 0H115.144V53.8744H115.628V0Z" fill="black"/>
<path d="M135.868 3.88285C136.81 3.87137 137.744 4.06228 138.607 4.44274C139.469 4.8232 140.241 5.3844 140.869 6.08859L140.112 6.93363C139.581 6.32122 138.921 5.83505 138.18 5.51048C137.438 5.18591 136.634 5.03111 135.825 5.05733C131.61 5.05733 129.023 8.27999 129.023 13.3933C129.023 18.5066 131.553 21.8724 135.739 21.8724C137.238 21.9334 138.704 21.4215 139.84 20.4401V14.711H135.453V13.6224H141.069V20.9271C140.353 21.6172 139.506 22.1555 138.578 22.5098C137.65 22.8642 136.66 23.0274 135.668 22.9896C130.952 22.9896 127.766 19.2657 127.766 13.3933C127.766 7.52088 131.067 3.88285 135.911 3.88285" fill="black"/>
<path d="M157.102 22.6458L152.129 14.1809H148.214V22.6458H146.942V4.22647H152.186C155.844 4.22647 158.245 5.55851 158.245 9.08194C158.245 12.0181 156.401 13.7082 153.515 14.095L158.573 22.6887L157.102 22.6458ZM151.843 13.1067C155.115 13.1067 156.902 11.8033 156.902 9.08194C156.902 6.36059 155.115 5.31502 151.843 5.31502H148.214V13.1067H151.843Z" fill="black"/>
<path d="M162.603 13.3646C162.603 7.5495 165.761 3.88284 170.205 3.88284C174.649 3.88284 177.764 7.5495 177.764 13.3646C177.764 19.1797 174.606 22.9896 170.205 22.9896C165.804 22.9896 162.603 19.2084 162.603 13.3646ZM176.421 13.3646C176.421 8.27997 173.906 5.05732 170.205 5.05732C166.504 5.05732 163.946 8.27997 163.946 13.3646C163.946 18.4492 166.461 21.8151 170.205 21.8151C173.949 21.8151 176.421 18.4779 176.421 13.3646Z" fill="black"/>
<path d="M183.122 4.21226H184.394V15.4414C184.394 20.3256 186.723 21.8151 189.31 21.8151C191.896 21.8151 194.311 20.3828 194.311 15.4414V4.21226H195.54V15.5703C195.54 21.2995 192.467 22.9896 189.31 22.9896C186.152 22.9896 183.122 21.3425 183.122 15.5703V4.21226Z" fill="black"/>
<path d="M202.098 4.21226H207.114C211.215 4.21226 213.644 5.55861 213.644 9.36851C213.644 13.1784 211.186 14.711 207.114 14.711H203.37V22.6315H202.098V4.21226ZM206.785 13.6511C210.558 13.6511 212.329 12.3907 212.329 9.35419C212.329 6.31773 210.529 5.28648 206.785 5.28648H203.37V13.6367L206.785 13.6511Z" fill="black"/>
<path d="M131.838 32.3282H128.595V50.6186H131.838V32.3282Z" fill="black"/>
<path d="M137.768 32.3282H141.098L146.813 42.6264L148.714 46.5079H148.828C148.657 44.6316 148.399 42.3113 148.399 40.2775V32.3282H151.386V50.6186H148.099L142.384 40.3348L140.483 36.4389H140.383C140.54 38.3725 140.798 40.5782 140.798 42.6264V50.6186H137.725L137.768 32.3282Z" fill="black"/>
<path d="M161.074 35.0782H155.787V32.3282H169.548V35.0782H164.303V50.6329H161.074V35.0782Z" fill="black"/>
<path d="M173.934 32.3282H184.908V35.0782H177.164V39.7475H183.737V42.4832H177.164V47.8829H185.18V50.6329H173.934V32.3282Z" fill="black"/>
<path d="M200.169 50.6186L196.24 43.4572H193.468V50.6186H190.238V32.3282H196.383C200.169 32.3282 203.099 33.6746 203.099 37.7566C203.174 38.9153 202.852 40.065 202.187 41.0156C201.522 41.9662 200.553 42.6608 199.441 42.9845L203.799 50.6186H200.169ZM193.468 40.8933H196.04C198.555 40.8933 199.898 39.8191 199.898 37.7566C199.898 35.6941 198.555 34.892 196.04 34.892H193.468V40.8933Z" fill="black"/>
<path d="M211.501 32.3282H208.257V50.6186H211.501V32.3282Z" fill="black"/>
<path d="M216.459 41.3947C216.459 35.4936 219.76 31.9988 224.532 31.9988C229.305 31.9988 232.563 35.4936 232.563 41.3947C232.563 47.2957 229.276 50.9624 224.532 50.9624C219.788 50.9624 216.459 47.3244 216.459 41.3947ZM229.319 41.3947C229.319 37.3126 227.447 34.8204 224.604 34.8204C221.76 34.8204 219.86 37.3126 219.86 41.3947C219.86 45.4767 221.732 48.1408 224.604 48.1408C227.476 48.1408 229.319 45.5053 229.319 41.3947Z" fill="black"/>
<path d="M247.495 50.6186L243.566 43.4572H240.794V50.6186H237.564V32.3282H243.694C247.495 32.3282 250.425 33.6746 250.425 37.7566C250.5 38.9153 250.178 40.065 249.513 41.0156C248.848 41.9662 247.879 42.6608 246.766 42.9845L251.125 50.6186H247.495ZM240.794 40.8933H243.366C245.881 40.8933 247.224 39.8191 247.224 37.7566C247.224 35.6941 245.881 34.892 243.366 34.892H240.794V40.8933Z" fill="black"/>
<path d="M255.812 46.0639C257.093 47.3213 258.793 48.0607 260.584 48.1408C262.628 48.1408 263.771 47.2098 263.771 45.7775C263.771 44.3452 262.599 43.8009 260.913 43.0991L258.426 42.0106C257.382 41.6855 256.465 41.0413 255.804 40.1681C255.143 39.2949 254.771 38.2364 254.74 37.1408C254.74 34.2762 257.312 31.9988 260.856 31.9988C262.963 32.0017 264.985 32.8351 266.486 34.3191L264.814 36.3816C263.745 35.3698 262.339 34.7928 260.87 34.7632C259.141 34.7632 258.012 35.5796 258.012 36.9116C258.012 38.2436 259.441 38.8738 260.87 39.4897L263.313 40.521C265.5 41.452 267 42.8126 267 45.4767C267 48.4415 264.542 50.9051 260.441 50.9051C257.987 50.9071 255.63 49.9397 253.883 48.2124L255.812 46.0639Z" fill="black"/>
</svg>
