<svg width="267" height="54" viewBox="0 0 267 54" fill="none" xmlns="http://www.w3.org/2000/svg">
<path d="M43.1213 50.3445C40.5005 47.6826 39.032 44.1029 39.0314 40.3741C38.867 38.4047 39.1492 36.4237 39.8572 34.5776C40.5651 32.7316 41.6807 31.0678 43.1213 29.7093L31.8906 0.00761043H22.685C21.6747 -0.0493114 20.6723 0.2142 19.8217 0.760318C18.9711 1.30644 18.3161 2.10706 17.9508 3.04722L0 53.882H11.5595L15.176 42.7324H36.3224L40.0703 53.882H49.6967C47.2256 53.313 44.9542 52.091 43.1213 50.3445ZM18.1349 33.6529L25.6045 10.6593L33.324 33.6529H18.1349Z" fill="white"/>
<path d="M103.05 1.97512e-05H63.7157C62.3747 -0.00369715 61.0859 0.517321 60.1266 1.45093C59.1674 2.38453 58.6145 3.65606 58.5869 4.99179V9.34157H74.6834V53.8875H85.9142V9.34157H97.7498C98.4445 9.35584 99.135 9.23005 99.7797 8.97173C100.424 8.71341 101.01 8.32791 101.501 7.83839C101.993 7.34887 102.38 6.76545 102.639 6.12316C102.898 5.48088 103.024 4.793 103.01 4.10087L103.05 1.97512e-05Z" fill="white"/>
<path d="M70.1591 28.1371C70.2876 30.9163 69.5378 33.6657 68.0155 35.9981C66.0035 33.7053 61.3744 27.9144 61.3744 27.9144C66.227 24.7044 68.9361 20.9311 68.9361 16.6337C68.9776 14.5817 68.4004 12.5645 67.2791 10.8428H57.2188V6.30957C50.4987 6.49299 46.6982 10.5021 45.6987 14.7471C45.4126 16.1984 45.4259 17.6926 45.7379 19.1387C46.0499 20.5847 46.654 21.9524 47.5135 23.1584C48.2915 24.3827 49.1713 25.5397 50.1437 26.6173C45.4751 29.3818 40.4121 31.858 40.4121 40.4527C40.4121 47.305 45.0806 53.2401 54.9831 53.2401C57.3097 53.3495 59.6344 52.9866 61.8159 52.1736C63.9974 51.3605 65.9903 50.1142 67.6736 48.5103C68.5021 49.5323 70.8561 52.4408 72.066 54H73.381V28.1371H70.1591ZM53.6418 15.3236C53.8085 14.8109 54.1188 14.3564 54.536 14.0134C55.0372 13.5849 55.6268 13.2712 56.2631 13.0946C56.8994 12.9181 57.5668 12.8828 58.2182 12.9915C58.7796 13.0283 59.3205 13.2158 59.7836 13.5341C60.2466 13.8524 60.6146 14.2897 60.8484 14.7995C61.137 15.5137 61.2497 16.2865 61.1771 17.053C61.0736 17.8737 60.8075 18.6657 60.3944 19.3831C59.9813 20.1005 59.4293 20.7291 58.7705 21.2325C58.5733 21.3897 57.4555 22.1365 57.0609 22.3854C56.9689 22.2937 56.7848 22.1365 56.6927 22.0317C55.3999 20.7351 54.404 19.1753 53.7733 17.4592C53.5857 16.764 53.5857 16.0318 53.7733 15.3367M52.9185 44.9991C51.7316 44.4646 50.745 43.5696 50.1 42.4423C49.4551 41.3149 49.185 40.013 49.3283 38.7233C49.6571 35.854 51.6297 34.0067 54.6807 32.1724L63.0051 42.6538C61.3612 44.4095 56.9031 46.8988 52.9185 45.0515" fill="white"/>
<path d="M115.628 0H115.144V53.8744H115.628V0Z" fill="white"/>
<path d="M135.868 3.88281C136.81 3.87133 137.744 4.06223 138.607 4.4427C139.469 4.82316 140.241 5.38436 140.869 6.08854L140.112 6.93359C139.581 6.32118 138.921 5.835 138.179 5.51043C137.438 5.18586 136.633 5.03107 135.825 5.05729C131.609 5.05729 129.023 8.27995 129.023 13.3932C129.023 18.5065 131.552 21.8724 135.739 21.8724C137.238 21.9334 138.704 21.4214 139.84 20.4401V14.7109H135.453V13.6224H141.069V20.9271C140.353 21.6171 139.506 22.1554 138.578 22.5098C137.65 22.8642 136.66 23.0274 135.668 22.9896C130.952 22.9896 127.766 19.2656 127.766 13.3932C127.766 7.52083 131.066 3.88281 135.91 3.88281" fill="white"/>
<path d="M157.102 22.6458L152.129 14.181H148.214V22.6458H146.942V4.22656H152.186C155.844 4.22656 158.245 5.55859 158.245 9.08203C158.245 12.0182 156.401 13.7083 153.515 14.0951L158.573 22.6888L157.102 22.6458ZM151.843 13.1068C155.115 13.1068 156.901 11.8034 156.901 9.08203C156.901 6.36068 155.115 5.31511 151.843 5.31511H148.214V13.1068H151.843Z" fill="white"/>
<path d="M162.603 13.3646C162.603 7.54947 165.761 3.88281 170.205 3.88281C174.649 3.88281 177.764 7.54947 177.764 13.3646C177.764 19.1797 174.606 22.9896 170.205 22.9896C165.804 22.9896 162.603 19.2083 162.603 13.3646ZM176.421 13.3646C176.421 8.27994 173.906 5.05729 170.205 5.05729C166.504 5.05729 163.946 8.27994 163.946 13.3646C163.946 18.4492 166.461 21.8151 170.205 21.8151C173.949 21.8151 176.421 18.4779 176.421 13.3646Z" fill="white"/>
<path d="M183.122 4.21216H184.394V15.4413C184.394 20.3255 186.723 21.815 189.309 21.815C191.896 21.815 194.311 20.3827 194.311 15.4413V4.21216H195.539V15.5702C195.539 21.2994 192.467 22.9895 189.309 22.9895C186.151 22.9895 183.122 21.3424 183.122 15.5702V4.21216Z" fill="white"/>
<path d="M202.098 4.21216H207.114C211.215 4.21216 213.644 5.55851 213.644 9.36841C213.644 13.1783 211.186 14.7109 207.114 14.7109H203.37V22.6314H202.098V4.21216ZM206.785 13.651C210.557 13.651 212.329 12.3906 212.329 9.35409C212.329 6.31763 210.529 5.28638 206.785 5.28638H203.37V13.6366L206.785 13.651Z" fill="white"/>
<path d="M131.838 32.3284H128.595V50.6187H131.838V32.3284Z" fill="white"/>
<path d="M137.768 32.3284H141.098L146.814 42.6265L148.714 46.5081H148.828C148.657 44.6318 148.4 42.3114 148.4 40.2776V32.3284H151.386V50.6187H148.1L142.384 40.3349L140.483 36.439H140.383C140.541 38.3726 140.798 40.5784 140.798 42.6265V50.6187H137.726L137.768 32.3284Z" fill="white"/>
<path d="M161.074 35.0784H155.787V32.3284H169.548V35.0784H164.303V50.6331H161.074V35.0784Z" fill="white"/>
<path d="M173.935 32.3284H184.909V35.0784H177.164V39.7476H183.737V42.4833H177.164V47.8831H185.18V50.6331H173.935V32.3284Z" fill="white"/>
<path d="M200.169 50.6187L196.24 43.4573H193.468V50.6187H190.238V32.3284H196.383C200.169 32.3284 203.099 33.6747 203.099 37.7568C203.174 38.9154 202.852 40.0651 202.187 41.0157C201.522 41.9663 200.553 42.6609 199.441 42.9846L203.799 50.6187H200.169ZM193.468 40.8935H196.04C198.555 40.8935 199.898 39.8193 199.898 37.7568C199.898 35.6943 198.555 34.8922 196.04 34.8922H193.468V40.8935Z" fill="white"/>
<path d="M211.5 32.3284H208.257V50.6187H211.5V32.3284Z" fill="white"/>
<path d="M216.459 41.3946C216.459 35.4936 219.76 31.9988 224.532 31.9988C229.305 31.9988 232.563 35.4936 232.563 41.3946C232.563 47.2957 229.276 50.9623 224.532 50.9623C219.788 50.9623 216.459 47.3243 216.459 41.3946ZM229.319 41.3946C229.319 37.3126 227.447 34.8204 224.604 34.8204C221.76 34.8204 219.86 37.3126 219.86 41.3946C219.86 45.4767 221.732 48.1407 224.604 48.1407C227.476 48.1407 229.319 45.5053 229.319 41.3946Z" fill="white"/>
<path d="M247.495 50.6187L243.566 43.4573H240.794V50.6187H237.564V32.3284H243.695C247.495 32.3284 250.425 33.6747 250.425 37.7568C250.5 38.9154 250.178 40.0651 249.513 41.0157C248.848 41.9663 247.879 42.6609 246.767 42.9846L251.125 50.6187H247.495ZM240.794 40.8935H243.366C245.881 40.8935 247.224 39.8193 247.224 37.7568C247.224 35.6943 245.881 34.8922 243.366 34.8922H240.794V40.8935Z" fill="white"/>
<path d="M255.811 46.0639C257.093 47.3212 258.792 48.0607 260.584 48.1407C262.627 48.1407 263.77 47.2097 263.77 45.7774C263.77 44.3451 262.599 43.8009 260.913 43.099L258.426 42.0105C257.382 41.6854 256.465 41.0412 255.804 40.168C255.143 39.2948 254.771 38.2364 254.74 37.1407C254.74 34.2761 257.312 31.9988 260.855 31.9988C262.963 32.0017 264.985 32.8351 266.485 34.3191L264.814 36.3816C263.745 35.3697 262.339 34.7928 260.87 34.7631C259.141 34.7631 258.012 35.5795 258.012 36.9115C258.012 38.2436 259.441 38.8738 260.87 39.4897L263.313 40.5209C265.499 41.4519 267 42.8126 267 45.4766C267 48.4415 264.542 50.905 260.441 50.905C257.987 50.9071 255.63 49.9396 253.882 48.2123L255.811 46.0639Z" fill="white"/>
</svg>
