<svg width="24" height="18" viewBox="0 0 24 18" fill="none" xmlns="http://www.w3.org/2000/svg">
<path d="M23 14.5C23 15.0835 22.7682 15.643 22.3556 16.0556C21.9431 16.4682 21.3835 16.7 20.8 16.7H3.2C2.61652 16.7 2.05695 16.4682 1.64436 16.0556C1.23178 15.643 1 15.0835 1 14.5V6.24999C1 3.49999 3.2 1.29999 5.95 1.29999H18.6C21.02 1.29999 23 3.27999 23 5.69999V14.5Z" stroke="black" stroke-width="1.6" stroke-linecap="round" stroke-linejoin="round"/>
<path d="M15.3004 5.69999H18.6004V7.89999M5.95039 1.29999C8.70039 1.29999 10.9004 3.49999 10.9004 6.24999V14.5C10.9004 15.0835 10.6686 15.643 10.256 16.0556C9.84345 16.4682 9.28387 16.7 8.70039 16.7M5.40039 6.79999H6.50039" stroke="black" stroke-width="1.6" stroke-linecap="round" stroke-linejoin="round"/>
</svg>
