<svg width="18" height="22" viewBox="0 0 18 22" fill="none" xmlns="http://www.w3.org/2000/svg">
<path d="M1.70514 6.38018C1.38814 4.29231 2.86027 2.41688 5.10913 1.72978C5.50822 1.60858 5.93846 1.6437 6.31261 1.828C6.68676 2.0123 6.97682 2.332 7.12398 2.72226L7.84593 4.64748C7.96216 4.9572 7.98317 5.29458 7.90628 5.61633C7.8294 5.93807 7.65811 6.2295 7.41442 6.45321L5.2668 8.41992C5.16081 8.51697 5.08183 8.63988 5.03761 8.77662C4.99339 8.91336 4.98544 9.05923 5.01453 9.19997L5.03445 9.28627L5.0859 9.50203C5.35365 10.5501 5.76057 11.5577 6.2958 12.4977C6.88021 13.4959 7.60454 14.4052 8.44674 15.198L8.51312 15.2578C8.62034 15.3529 8.75038 15.4187 8.89058 15.4487C9.03077 15.4786 9.17634 15.4718 9.31309 15.4287L12.0897 14.5541C12.4053 14.455 12.7432 14.4525 13.0602 14.5468C13.3773 14.6411 13.6588 14.828 13.8689 15.0835L15.1834 16.6785C15.731 17.3423 15.6647 18.3182 15.0356 18.9041C13.3146 20.509 10.9479 20.8376 9.30147 19.5148C7.2825 17.8878 5.58107 15.9023 4.28261 13.6579C2.97145 11.4164 2.098 8.94706 1.70514 6.38018ZM6.75387 9.30951L8.53304 7.67639C9.02071 7.22917 9.36359 6.6464 9.51767 6.0029C9.67174 5.35939 9.62997 4.68453 9.39773 4.06494L8.67743 2.13971C8.38193 1.35431 7.79854 0.710837 7.04577 0.34C6.293 -0.0308363 5.4273 -0.101227 4.62451 0.143126C1.83127 0.997859 -0.410945 3.50231 0.0637216 6.63079C0.395656 8.81492 1.16077 11.5932 2.84865 14.4943C4.24961 16.9143 6.08493 19.0552 8.26251 20.8094C10.7321 22.7927 14.0282 22.1156 16.1692 20.1206C16.7818 19.5502 17.1537 18.7676 17.2089 17.9323C17.2641 17.0971 16.9985 16.2723 16.4663 15.6262L15.1518 14.0296C14.7313 13.5192 14.168 13.1461 13.534 12.958C12.9 12.77 12.2243 12.7755 11.5935 12.9741L9.28819 13.6993C8.69294 13.0857 8.17157 12.4045 7.73474 11.6696C7.3132 10.9264 6.98435 10.1344 6.75553 9.31117" fill="black"/>
</svg>
