<svg width="24" height="24" viewBox="0 0 24 24" fill="none" xmlns="http://www.w3.org/2000/svg">
<path d="M18.365 10.586C18.69 10.261 18.9478 9.87514 19.1237 9.45048C19.2996 9.02582 19.3901 8.57067 19.3901 8.11102C19.3901 7.65137 19.2996 7.19622 19.1237 6.77156C18.9478 6.3469 18.69 5.96104 18.365 5.63602C18.0399 5.311 17.6541 5.05318 17.2294 4.87727C16.8048 4.70137 16.3496 4.61084 15.89 4.61084C15.4303 4.61084 14.9752 4.70137 14.5505 4.87727C14.1258 5.05318 13.74 5.311 13.415 5.63602L5.63696 13.414C4.98055 14.0704 4.61178 14.9607 4.61178 15.889C4.61178 16.8173 4.98055 17.7076 5.63696 18.364C5.96198 18.689 6.34784 18.9469 6.7725 19.1228C7.19716 19.2987 7.65231 19.3892 8.11196 19.3892C9.04026 19.3892 9.93055 19.0204 10.587 18.364L14.653 14.298C14.769 14.1819 14.8611 14.0441 14.924 13.8924C14.9868 13.7408 15.0191 13.5782 15.0191 13.414C15.0191 13.2498 14.9868 13.0873 14.924 12.9356C14.8611 12.7839 14.769 12.6461 14.653 12.53C14.5369 12.4139 14.3991 12.3218 14.2474 12.259C14.0957 12.1962 13.9331 12.1639 13.769 12.1639C13.6048 12.1639 13.4422 12.1962 13.2905 12.259C13.1389 12.3218 13.001 12.4139 12.885 12.53L9.17296 16.243C8.98532 16.4307 8.73082 16.5361 8.46546 16.5361C8.2001 16.5361 7.9456 16.4307 7.75796 16.243C7.57032 16.0554 7.4649 15.8009 7.4649 15.5355C7.4649 15.2702 7.57032 15.0157 7.75796 14.828L11.471 11.116C12.0823 10.5158 12.906 10.1812 13.7628 10.1852C14.6195 10.1891 15.4401 10.5312 16.0459 11.137C16.6518 11.7429 16.9939 12.5634 16.9978 13.4202C17.0017 14.277 16.6672 15.1006 16.067 15.712L12.001 19.778C11.4915 20.2944 10.8849 20.7048 10.2162 20.9858C9.54741 21.2667 8.82969 21.4126 8.10433 21.415C7.37896 21.4175 6.66028 21.2764 5.98966 20.9999C5.31904 20.7235 4.70973 20.3171 4.19681 19.8042C3.6839 19.2913 3.27751 18.6819 3.00104 18.0113C2.72458 17.3407 2.5835 16.622 2.58593 15.8967C2.58836 15.1713 2.73425 14.4536 3.0152 13.7848C3.29616 13.1161 3.70662 12.5095 4.22296 12L12.001 4.22202C12.5104 3.70568 13.117 3.29522 13.7857 3.01426C14.4545 2.73331 15.1722 2.58742 15.8976 2.58499C16.623 2.58256 17.3416 2.72364 18.0123 3.00011C18.6829 3.27657 19.2922 3.68296 19.8051 4.19587C20.318 4.70879 20.7244 5.3181 21.0009 5.98872C21.2773 6.65934 21.4184 7.37802 21.416 8.10339C21.4136 8.82875 21.2677 9.54648 20.9867 10.2152C20.7058 10.884 20.2953 11.4906 19.779 12L19.426 12.353C19.3338 12.4486 19.2235 12.5248 19.1015 12.5773C18.9796 12.6298 18.8484 12.6575 18.7156 12.6588C18.5828 12.66 18.4511 12.6348 18.3282 12.5846C18.2052 12.5344 18.0935 12.4602 17.9996 12.3664C17.9056 12.2726 17.8313 12.161 17.7809 12.0381C17.7306 11.9153 17.7052 11.7836 17.7062 11.6508C17.7073 11.5181 17.7348 11.3868 17.7871 11.2648C17.8394 11.1427 17.9155 11.0323 18.011 10.94L18.365 10.586Z" fill="black"/>
</svg>
