<svg width="16" height="16" viewBox="0 0 16 16" fill="none" xmlns="http://www.w3.org/2000/svg">
<path d="M7.88135 1.8903C9.87133 1.8903 10.1073 1.89775 10.8937 1.93378C12.9134 2.0257 13.8569 2.98405 13.9488 4.98894C13.9848 5.77462 13.9917 6.01064 13.9917 8.00062C13.9917 9.99123 13.9842 10.2266 13.9488 11.0123C13.8563 13.0153 12.9153 13.9755 10.8937 14.0675C10.1073 14.1035 9.87257 14.1109 7.88135 14.1109C5.89136 14.1109 5.65535 14.1035 4.86966 14.0675C2.8449 13.9749 1.90643 13.0122 1.8145 11.0117C1.77848 10.226 1.77103 9.99061 1.77103 8C1.77103 6.01002 1.7791 5.77462 1.8145 4.98832C1.90705 2.98405 2.848 2.02508 4.86966 1.93316C5.65597 1.89775 5.89136 1.8903 7.88135 1.8903ZM7.88135 0.546875C5.8572 0.546875 5.6038 0.55557 4.8088 0.591594C2.10207 0.715813 0.597781 2.21762 0.473562 4.92683C0.436918 5.72245 0.428223 5.97586 0.428223 8C0.428223 10.0241 0.436918 10.2782 0.472941 11.0732C0.59716 13.7799 2.09896 15.2842 4.80818 15.4084C5.6038 15.4444 5.8572 15.4531 7.88135 15.4531C9.90549 15.4531 10.1595 15.4444 10.9545 15.4084C13.6588 15.2842 15.1668 13.7824 15.2891 11.0732C15.3258 10.2782 15.3345 10.0241 15.3345 8C15.3345 5.97586 15.3258 5.72245 15.2898 4.92745C15.168 2.22321 13.6644 0.716434 10.9551 0.592215C10.1595 0.55557 9.90549 0.546875 7.88135 0.546875ZM7.88135 4.17282C5.76777 4.17282 4.05417 5.88642 4.05417 8C4.05417 10.1136 5.76777 11.8278 7.88135 11.8278C9.99493 11.8278 11.7085 10.1142 11.7085 8C11.7085 5.88642 9.99493 4.17282 7.88135 4.17282ZM7.88135 10.4844C6.50935 10.4844 5.39697 9.37262 5.39697 8C5.39697 6.628 6.50935 5.51562 7.88135 5.51562C9.25334 5.51562 10.3657 6.628 10.3657 8C10.3657 9.37262 9.25334 10.4844 7.88135 10.4844ZM11.8601 3.12752C11.3657 3.12752 10.9651 3.52812 10.9651 4.02189C10.9651 4.51566 11.3657 4.91627 11.8601 4.91627C12.3538 4.91627 12.7538 4.51566 12.7538 4.02189C12.7538 3.52812 12.3538 3.12752 11.8601 3.12752Z" fill="black"/>
</svg>
